<svg width="128" height="179" viewBox="0 0 128 179" fill="none" xmlns="http://www.w3.org/2000/svg">
<g clip-path="url(#clip0_165_2083)">
<path d="M92.1565 178.923C100.902 178.923 107.992 171.941 107.992 163.328V159.172C107.992 155.618 110.944 152.737 114.552 152.737C121.948 152.737 128 146.833 128 139.549V98.6853C128 97.276 126.839 96.1331 125.408 96.1331C113.959 96.1331 104.677 105.274 104.677 116.549V136.15C104.677 142.96 99.0719 148.481 92.1565 148.481H91.415C84.9095 148.481 79.6359 143.287 79.6359 136.88C79.6359 130.474 74.3623 125.281 67.857 125.281H15.0378C13.3269 125.281 11.9399 126.646 11.9399 128.331C11.9399 141.811 23.0356 152.737 36.7227 152.737H69.788C73.3963 152.737 76.3215 155.618 76.3215 159.172V163.328C76.3215 171.941 83.4111 178.923 92.1565 178.923Z" fill="#1C1917"/>
<path fill-rule="evenodd" clip-rule="evenodd" d="M59.3394 0C26.5673 0 0 26.1637 0 58.4381C0 90.7127 26.5673 116.876 59.3394 116.876C92.1114 116.876 118.679 90.7127 118.679 58.4381C118.679 26.1637 92.1114 0 59.3394 0ZM59.1086 27.2005C41.719 27.2005 27.6217 41.0836 27.6217 58.2092C27.6217 75.3349 41.719 89.2176 59.1086 89.2176C76.4984 89.2176 90.5958 75.3349 90.5958 58.2092C90.5958 41.0836 76.4984 27.2005 59.1086 27.2005Z" fill="#1C1917"/>
</g>
<defs>
<clipPath id="clip0_165_2083">
<rect width="128" height="179" fill="white"/>
</clipPath>
</defs>
</svg>
